<?xml version="1.0" encoding="utf-8"?>
<!-- Generator: Adobe Illustrator 23.0.1, SVG Export Plug-In . SVG Version: 6.00 Build 0)  -->
<svg version="1.1" id="Capa_1" xmlns="http://www.w3.org/2000/svg" xmlns:xlink="http://www.w3.org/1999/xlink" x="0px" y="0px"
	 viewBox="0 0 248.2 248.2" style="enable-background:new 0 0 248.2 248.2;" xml:space="preserve">
<style type="text/css">
	.st0{fill:#FFFFFF;}
</style>
<g>
	<g>
		<path class="st0" d="M134.5,8.6c-6.8-11.6-14-11.2-20.8,0C82.5,55,35.3,124.6,35.3,159.4c0,24.4,10,46.8,26,62.8s38.4,26,62.8,26
			s46.8-10,62.8-26s26-38.4,26-62.8C212.9,124.2,165.7,55,134.5,8.6z M188.1,199c-6.4,10.4-15.6,19.6-26.8,26
			c-5.2,2.8-11.6,1.2-14.4-4c-3.2-5.6-1.2-12,4-14.8c8-4.4,14.4-10.8,19.2-18.4c4.8-7.6,7.6-16.4,8-25.6c0.4-6,5.2-10.4,11.2-10
			s10.4,5.2,10,11.2C198.5,176.2,194.5,188.2,188.1,199z"/>
	</g>
</g>
</svg>
