<?xml version="1.0" encoding="utf-8"?>
<!-- Generator: Adobe Illustrator 23.0.1, SVG Export Plug-In . SVG Version: 6.00 Build 0)  -->
<svg version="1.1" id="Capa_1" xmlns="http://www.w3.org/2000/svg" xmlns:xlink="http://www.w3.org/1999/xlink" x="0px" y="0px"
	 viewBox="0 0 512 512" style="enable-background:new 0 0 512 512;" xml:space="preserve">
<style type="text/css">
	.st0{fill:#FFFFFF;}
</style>
<g>
	<g id="Burger_1_">
		<g>
			<path class="st0" d="M407,512H105C47.1,512,0,464.9,0,407c0-8.3,6.7-15,15-15h482c8.3,0,15,6.7,15,15
				C512,464.9,464.9,512,407,512z"/>
		</g>
		<g>
			<path class="st0" d="M256,0C115.4,0,0,87.5,0,195c0,8.3,6.7,15,15,15h482c8.3,0,15-6.7,15-15C512,87.5,396.6,0,256,0z
				 M145.6,115.6l-30,30c-5.9,5.9-15.4,5.9-21.2,0c-5.9-5.9-5.9-15.4,0-21.2l30-30c5.9-5.9,15.4-5.9,21.2,0S151.5,109.7,145.6,115.6
				z M236.6,115.6l-30,30c-5.9,5.9-15.4,5.9-21.2,0c-5.9-5.9-5.9-15.4,0-21.2l30-30c5.9-5.9,15.4-5.9,21.2,0
				S242.5,109.7,236.6,115.6z M326.6,115.6l-30,30c-5.9,5.9-15.4,5.9-21.2,0c-5.9-5.9-5.9-15.4,0-21.2l30-30
				c5.9-5.9,15.4-5.9,21.2,0S332.5,109.7,326.6,115.6z M409.3,115.6l-30,30c-5.9,5.9-15.4,5.9-21.2,0c-5.9-5.9-5.9-15.4,0-21.2
				l30-30c5.9-5.9,15.4-5.9,21.2,0S415.1,109.7,409.3,115.6z"/>
		</g>
	</g>
	<g id="Burger_4_">
		<g>
			<path class="st0" d="M15,271c7.2,0,13.5,0.9,18.9,2.4c-2.1,6.8-2.7,8.9-3.9,30c-3.9-1.5-8.7-2.4-15-2.4c-8.4,0-15-6.6-15-15
				C0,277.6,6.6,271,15,271z"/>
			<path class="st0" d="M512,286c0,8.4-6.6,15-15,15c-6.3,0-11.1,0.9-15,2.4c-0.3-5.8,0.3-16.5-3.9-30c5.4-1.5,11.7-2.4,18.9-2.4
				C505.4,271,512,277.6,512,286z"/>
		</g>
	</g>
	<path class="st0" d="M33.9,273.4c13.5,3.3,22.5,9.9,30,15.6c9.3,6.9,16.2,12,31.2,12s21.6-5.1,30.9-12c10.8-8.1,25-18,49.9-18
		c25.2,0,38.4,9.9,49.2,18c9.3,6.9,15.9,12,30.9,12s21.6-5.1,30.9-12c10.8-8.1,24-18,49.2-18c24.9,0,39.1,9.9,49.9,18
		c9.3,6.9,15.9,12,30.9,12s21.9-5.1,31.2-12c7.5-5.7,16.5-12.3,30-15.6c-3.2-11.8-8.4-22.7-15.2-32.4H49.1
		C42.3,250.7,37.1,261.6,33.9,273.4z"/>
	<path class="st0" d="M463.1,361c11.5-16.4,18.5-36.2,18.9-57.6c-6,2.1-10.5,5.7-15.9,9.6c-10.8,8.1-24,18-49.2,18
		c-24.9,0-38.1-9.9-48.9-18c-9.3-6.9-16.9-12-31.9-12s-21.9,5.1-31.2,12c-10.5,8.1-24,18-48.9,18s-38.4-9.9-48.9-18
		c-9.3-6.9-16.2-12-31.2-12s-22.6,5.1-31.9,12c-10.8,8.1-24,18-48.9,18c-25.2,0-38.4-9.9-49.2-18c-5.4-3.9-9.9-7.5-15.9-9.6
		c0.5,21.4,7.4,41.2,18.9,57.6H463.1z"/>
</g>
</svg>
