<?xml version="1.0" encoding="utf-8"?>
<!-- Generator: Adobe Illustrator 23.0.1, SVG Export Plug-In . SVG Version: 6.00 Build 0)  -->
<svg version="1.1" id="Layer_1" xmlns="http://www.w3.org/2000/svg" xmlns:xlink="http://www.w3.org/1999/xlink" x="0px" y="0px"
	 viewBox="0 0 512 512" style="enable-background:new 0 0 512 512;" xml:space="preserve">
<style type="text/css">
	.st0{fill:#FFFFFF;}
</style>
<g>
	<path class="st0" d="M369,30.6c-44.7,0-86.2,20.7-113,55.3c-26.8-34.6-68.3-55.3-113-55.3c-78.9,0-143,64.1-143,143
		c0,35.2,12.9,69.1,36.4,95.3c23.4,26.1,220,212.4,220,212.4S451.6,295.7,475.6,269c23.5-26.2,36.4-60.1,36.4-95.3
		C512,94.8,447.9,30.6,369,30.6L369,30.6z M193,270.3l-21.1,21.4l-21.5-21.1l21.1-21.4L193,270.3z M117.2,195.7l33,32.5l-21.1,21.4
		l-32.9-32.4c-13.2-12.9-20.5-30.3-20.5-48.8c0-37.7,30.7-68.3,68.3-68.3v30c-21.1,0-38.3,17.2-38.3,38.3
		C105.7,178.7,109.8,188.4,117.2,195.7z"/>
</g>
</svg>
